Coordinates
version=1
nRows=12
nColumns=24
inDegrees=yes

Units are S.I. units (second, meters, Newtons, ...)
Angles are in degrees.

endheader
time	pelvis_tilt	pelvis_list	pelvis_rotation	pelvis_tx	pelvis_ty	pelvis_tz	hip_flexion_r	hip_adduction_r	hip_rotation_r	knee_angle_r	ankle_angle_r	subtalar_angle_r	mtp_angle_r	hip_flexion_l	hip_adduction_l	hip_rotation_l	knee_angle_l	ankle_angle_l	subtalar_angle_l	mtp_angle_l	lumbar_extension	lumbar_bending	lumbar_rotation
      2.71500000	    -12.16596922	     -3.41642510	      9.59814955	     -1.85945613	     -0.04336234	      0.46044838	     37.71444797	     -2.72319819	    -13.11471347	     -9.06713012	    -13.33214880	     15.23870478	     16.75794899	     -4.03024443	      0.92810864	     18.87627156	    -16.17115557	      8.58641797	     -1.90133445	      0.93718523	      8.37102106	      1.24727723	     -6.08009637
      2.72000000	    -12.26594897	     -3.70791478	      9.46320059	     -1.85101071	     -0.04434514	      0.46093932	     37.80656619	     -2.25641709	    -12.96447245	     -9.62188701	    -13.34116909	     14.30390084	     16.54742869	     -4.02558174	      0.56607020	     18.54700851	    -16.88478935	      8.34342394	     -1.29167499	      1.33414454	      8.63781031	      1.59422472	     -5.99107611
      2.72500000	    -12.37194353	     -4.00262358	      9.28927972	     -1.84248558	     -0.04532084	      0.46152425	     37.88620924	     -1.74909118	    -12.70615923	    -10.19734677	    -13.35987138	     13.27083567	     16.29185481	     -3.99551781	      0.19728989	     18.14506278	    -17.63615668	      8.03966829	     -0.63674708	      1.78238552	      8.91624087	      1.95069426	     -5.86748438
      2.73000000	    -12.47835742	     -4.28834062	      9.07561505	     -1.83390355	     -0.04626854	      0.46223245	     37.94178118	     -1.20585544	    -12.31683584	    -10.76744448	    -13.38075614	     12.14717576	     16.01945236	     -3.94087735	     -0.17147554	     17.64029940	    -18.42944440	      7.66809644	      0.10687901	      2.32237200	      9.19034577	      2.30136457	     -5.70479676
      2.73500000	    -12.59103195	     -4.58382043	      8.83002468	     -1.82527357	     -0.04717454	      0.46302714	     37.97604843	     -0.61739316	    -11.80247884	    -11.30751907	    -13.41317556	     10.95482362	     15.77264340	     -3.84875527	     -0.55946289	     17.04670551	    -19.26540907	      7.22087308	      0.92794497	      2.97333540	      9.47150901	      2.67028291	     -5.51168059
      2.74000000	    -12.71973586	     -4.90267957	      8.54686467	     -1.81660578	     -0.04804265	      0.46391903	     38.00826246	      0.02827760	    -11.20122747	    -11.81109280	    -13.46258781	      9.72385801	     15.61249818	     -3.70392497	     -0.97965541	     16.37194210	    -20.15252919	      6.70313314	      1.80695700	      3.70298802	      9.76970441	      3.06923336	     -5.29224110
      2.74500000	    -12.86326635	     -5.24283328	      8.22913194	     -1.80793773	     -0.04883511	      0.46489530	     38.04034589	      0.72742718	    -10.50439065	    -12.27153715	    -13.54102746	      8.44596350	     15.55397432	     -3.49778552	     -1.43450792	     15.59333196	    -21.09456843	      6.10274943	      2.77629141	      4.54947301	     10.07909254	      3.49592216	     -5.04736104
      2.75000000	    -12.98040508	     -5.58495722	      7.92291977	     -1.79942998	     -0.04945113	      0.46595056	     38.03060485	      1.44571741	     -9.68785363	    -12.67257925	    -13.73493233	      7.03916565	     15.65848956	     -3.25032564	     -1.91262060	     14.77887910	    -22.08900223	      5.27917607	      3.73787098	      5.80258211	     10.32569431	      3.92469319	     -4.85664674
      2.75500000	    -13.17446510	     -5.96899815	      7.54061887	     -1.79076868	     -0.05003954	      0.46710142	     38.12190695	      2.23797884	     -8.89461544	    -13.10981297	    -13.85232540	      5.71448556	     15.79791588	     -2.89629692	     -2.44571466	     13.85218392	    -23.13321296	      4.44303758	      4.87581762	      6.90126183	     10.68087586	      4.40466309	     -4.55998817
      2.76000000	    -13.32341082	     -6.39790002	      7.14835474	     -1.78218414	     -0.05040812	      0.46820722	     38.17689471	      3.08846906	     -8.07780164	    -13.53922008	    -14.10197708	      4.25944098	     16.18917170	     -2.55759159	     -3.03976212	     12.96525803	    -24.12991866	      3.15842184	      5.69411084	      8.85349782	     10.97067840	      4.95889185	     -4.26246680
      2.76500000	    -13.57311989	     -6.79622215	      6.73704369	     -1.77378550	     -0.05077772	      0.46941476	     38.40563901	      3.91355317	     -7.16710316	    -14.13478401	    -14.18892242	      2.87773314	     16.06677018	     -1.99357189	     -3.60687790	     11.99556221	    -25.37574908	      2.17472445	      7.03172457	      9.92237214	     11.33508157	      5.46406234	     -3.98294521
      2.77000000	    -13.79735782	     -7.25813745	      6.30990705	     -1.76525854	     -0.05092207	      0.47058942	     38.60789340	      4.82661524	     -6.23506658	    -14.77302947	    -14.28600230	      1.37281748	     15.68718724	     -1.46234499	     -4.25758524	     11.10706916	    -26.49513006	      0.62631550	      7.92956887	     11.96260182	     11.69088707	      6.05600877	     -3.69456372
